#!OML:ASF E:\Mandelcareful walks\Project 1\Capture day 1\Session 1\Subject1.ASF
:FULLY-SPECIFIED
:DEGREES
944
root 2.38359 14.731 -1.91368 -157.326 -20.3216 171.446
lowerback 29.6204 -0.785155 1.35891
upperback 6.52483 -2.18581 -2.76317
thorax -9.10967 -1.5945 -3.02648
lowerneck -18.0025 17.4765 8.78815
upperneck 3.7867 24.3895 -23.3321
head 8.28004 10.2061 -5.27525
rclavicle -3.97569e-014 2.24627e-014
rhumerus -20.5551 4.61205 -76.223
rradius 72.8402
rwrist -14.649
rhand -17.5149 -19.1304
rfingers 7.12502
rthumb 8.73847 -48.9296
lclavicle -3.97569e-014 2.24627e-014
lhumerus -2.84896 -6.17789 85.4889
lradius 76.053
lwrist 22.8975
lhand -29.9549 -12.643
lfingers 7.12502
lthumb -3.27389 17.3117
rfemur -67.4392 -13.1759 21.0106
rtibia 69.2529
rfoot -19.6316 -8.35681
rtoes 8.12312
lfemur -54.7317 22.8437 -38.9834
ltibia 78.4383
lfoot -23.5358 -8.68528
ltoes 7.97896
945
root 2.34928 14.7219 -1.9837 -157.072 -20.6814 171.309
lowerback 29.4359 -1.01371 1.86576
upperback 6.52604 -2.31447 -2.78665
thorax -9.04145 -1.65906 -3.30409
lowerneck -18.24 17.5816 8.71255
upperneck 3.93745 24.5743 -23.2892
head 8.38029 10.2632 -5.19446
rclavicle -9.93923e-015 2.5842e-014
rhumerus -20.2214 5.20781 -76.1809
rradius 72.8096
rwrist -14.9952
rhand -17.5682 -19.9016
rfingers 7.12502
rthumb 8.68707 -49.7028
lclavicle -9.93923e-015 2.5842e-014
lhumerus -2.58202 -7.63978 85.5136
lradius 75.7819
lwrist 22.3822
lhand -29.5656 -13.2801
lfingers 7.12502
lthumb -2.89792 16.68
rfemur -67.4568 -13.6144 20.9903
rtibia 69.5564
rfoot -20.0182 -8.4861
rtoes 6.50756
lfemur -56.4024 25.0799 -38.8658
ltibia 80.7078
lfoot -18.7203 -11.9654
ltoes 6.81154
946
root 2.32558 14.7131 -2.06072 -156.9 -20.7143 170.972
lowerback 29.4174 -1.01208 1.76295
upperback 6.52942 -2.3438 -2.79824
thorax -9.02865 -1.67031 -3.24695
lowerneck -18.2403 17.7032 8.63284
upperneck 3.9164 24.7795 -23.3961
head 8.41305 10.3481 -5.17102
rclavicle 1.98785e-014 1.82882e-014
rhumerus -19.8263 5.64211 -76.0825
rradius 72.6132
rwrist -14.9913
rhand -17.7117 -20.204
rfingers 7.12502
rthumb 8.54859 -50.011
lclavicle 1.98785e-014 1.82882e-014
lhumerus -2.36547 -9.24407 85.5508
lradius 75.5334
lwrist 21.724
lhand -28.9472 -14.0052
lfingers 7.12502
lthumb -2.30075 15.9621
rfemur -67.2623 -13.8876 20.6188
rtibia 69.7863
rfoot -20.4615 -8.31555
rtoes 5.7376
lfemur -57.764 27.5796 -38.6206
ltibia 82.7606
lfoot -13.296 -15.4294
ltoes 5.36149
947
root 2.24171 14.7014 -2.1122 -156.29 -21.8282 169.804
lowerback 28.9815 -1.80352 2.58
upperback 6.5503 -3.124 -3.04488
thorax -8.89601 -2.04475 -3.72584
lowerneck -17.9605 17.848 8.64742
upperneck 3.75606 24.9905 -23.5618
head 8.3762 10.4682 -5.19513
rclavicle -4.85035e-014 -4.85035e-014
rhumerus -19.5902 6.30624 -75.9191
rradius 72.5417
rwrist -15.0854
rhand -17.8499 -19.7723
rfingers 7.12502
rthumb 8.41517 -49.5847
lclavicle -4.85035e-014 -4.85035e-014
lhumerus -2.21469 -11.0455 85.4912
lradius 75.1655
lwrist 21.0038
lhand -27.2764 -14.2871
lfingers 7.12502
lthumb -0.687045 15.6916
rfemur -67.3399 -16.1048 20.0518
rtibia 70.0846
rfoot -20.7438 -8.17935
rtoes 3.22761
lfemur -58.6553 28.0617 -38.4331
ltibia 84.4367
lfoot -7.98459 -18.2611
ltoes 0.45325
948
root 2.26979 14.6975 -2.2185 -157.028 -19.6241 170.234
lowerback 29.6698 -0.425894 0.530568
upperback 6.5153 -2.01948 -3.00252
thorax -9.12394 -1.50849 -2.8754
lowerneck -17.7094 17.9531 8.7931
upperneck 3.77577 25.122 -23.4821
head 8.36481 10.5632 -5.17482
rclavicle 2.5842e-014 2.70347e-014
rhumerus -19.5012 6.90135 -75.9212
rradius 72.5064
rwrist -15.2214
rhand -18.1125 -19.3298
rfingers 7.12502
rthumb 8.16179 -49.1521
lclavicle 2.5842e-014 2.70347e-014
lhumerus -2.23755 -13.1277 85.235
lradius 74.8088
lwrist 20.1037
lhand -26.0026 -14.747
lfingers 7.12502
lthumb 0.543192 15.2321
rfemur -66.5045 -13.9845 20.0171
rtibia 70.1836
rfoot -20.811 -9.66224
rtoes -2.68771
lfemur -59.1019 32.9804 -36.9915
ltibia 85.6493
lfoot -3.38857 -22.0647
ltoes -10.2356
949
root 2.24297 14.6778 -2.2685 -156.716 -20.1927 169.944
lowerback 29.6848 -0.666166 0.830244
upperback 6.40606 -2.2147 -3.04247
thorax -9.27733 -1.59703 -3.0238
lowerneck -17.8894 18.0192 8.8639
upperneck 3.98489 25.2153 -23.2944
head 8.45341 10.5957 -5.09075
rclavicle 3.02153e-014 3.37934e-014
rhumerus -19.4331 7.09668 -75.9331
rradius 72.5644
rwrist -15.2296
rhand -18.2169 -19.1759
rfingers 7.12502
rthumb 8.06099 -49.0022
lclavicle 3.02153e-014 3.37934e-014
lhumerus -2.16306 -15.4761 84.9033
lradius 74.5981
lwrist 18.8292
lhand -25.7405 -15.5353
lfingers 7.12502
lthumb 0.79636 14.443
rfemur -66.6859 -14.6872 19.9933
rtibia 70.4982
rfoot -20.9971 -10.1372
rtoes -4.75386
lfemur -59.794 33.7089 -35.4465
ltibia 86.3543
lfoot -0.394151 -23.9753
ltoes -23.951
950
root 2.18226 14.6795 -2.32995 -156.624 -20.1455 169.254
lowerback 29.6668 -0.585026 0.715686
upperback 6.48306 -2.18257 -3.22444
thorax -9.18307 -1.58748 -3.17527
lowerneck -17.8982 18.001 9.08846
upperneck 4.03383 25.212 -23.6405
head 8.5618 10.5611 -5.22333
rclavicle -1.82882e-014 1.78906e-014
rhumerus -19.4871 7.22909 -75.5397
rradius 72.786
rwrist -15.3648
rhand -18.3783 -19.4555
rfingers 7.12502
rthumb 7.90523 -49.2877
lclavicle -1.82882e-014 1.78906e-014
lhumerus -2.04905 -18.1045 84.7503
lradius 74.3833
lwrist 17.3005
lhand -25.0212 -16.1988
lfingers 7.12502
lthumb 1.49112 13.7757
rfemur -66.2435 -15.053 18.8656
rtibia 70.771
rfoot -21.6484 -9.59145
rtoes -2.71989
lfemur -59.1816 34.6733 -34.2111
ltibia 86.2546
lfoot -2.83867 -21.7023
ltoes -26.3101
951
root 2.12781 14.6765 -2.37539 -156.478 -20.4431 168.847
lowerback 29.5143 -0.700158 1.12771
upperback 6.59385 -2.23731 -3.42823
thorax -9.00493 -1.62622 -3.62815
lowerneck -17.6521 17.9372 9.59941
upperneck 3.71758 25.0819 -24.4181
head 8.60145 10.4836 -5.5753
rclavicle -3.02153e-014 5.48646e-014
rhumerus -19.3016 7.18499 -75.3062
rradius 72.8066
rwrist -15.5438
rhand -18.5259 -20.1645
rfingers 7.12502
rthumb 7.76275 -50.002
lclavicle -3.02153e-014 5.48646e-014
lhumerus -1.73861 -20.7939 84.2497
lradius 74.053
lwrist 15.9598
lhand -23.4925 -17.1247
lfingers 7.12502
lthumb 2.96747 12.8344
rfemur -65.9693 -15.2635 18.1654
rtibia 70.9944
rfoot -22.1009 -9.8416
rtoes -2.23331
lfemur -58.6341 35.1163 -32.5696
ltibia 85.5904
lfoot -5.89484 -17.354
ltoes -32.5709
952
root 2.07614 14.6839 -2.40733 -156.115 -21.0737 168.379
lowerback 29.4814 -1.04319 1.24624
upperback 6.69649 -2.63163 -3.302
thorax -8.8996 -1.81234 -3.41025
lowerneck -18.0804 18.0273 9.11537
upperneck 3.42087 25.2704 -24.8314
head 8.61823 10.4975 -5.57374
rclavicle 3.29983e-014 -1.03368e-014
rhumerus -18.5357 7.89725 -74.7589
rradius 72.6863
rwrist -16.1284
rhand -18.4281 -20.3953
rfingers 7.12502
rthumb 7.85719 -50.2293
lclavicle 3.29983e-014 -1.03368e-014
lhumerus -1.32409 -22.501 83.9659
lradius 73.7663
lwrist 14.7726
lhand -22.1038 -18.1856
lfingers 7.12502
lthumb 4.30849 11.7506
rfemur -65.8215 -15.6688 17.5
rtibia 71.0751
rfoot -22.4746 -10.1885
rtoes -2.02501
lfemur -57.9538 34.5677 -30.7253
ltibia 84.1504
lfoot -8.56777 -12.0427
ltoes -33.6215
